<?xml version="1.0" encoding="UTF-8" standalone="no"?>
<svg
   xmlns:dc="http://purl.org/dc/elements/1.1/"
   xmlns:cc="http://creativecommons.org/ns#"
   xmlns:rdf="http://www.w3.org/1999/02/22-rdf-syntax-ns#"
   xmlns:svg="http://www.w3.org/2000/svg"
   xmlns="http://www.w3.org/2000/svg"
   xmlns:sodipodi="http://sodipodi.sourceforge.net/DTD/sodipodi-0.dtd"
   xmlns:inkscape="http://www.inkscape.org/namespaces/inkscape"
   inkscape:version="1.0 (4035a4fb49, 2020-05-01)"
   sodipodi:docname="naint_reg.svg"
   viewBox="0 0 46.222664 6.8626666"
   height="6.8626666"
   width="46.222664"
   xml:space="preserve"
   id="svg10"
   version="1.1"><metadata
     id="metadata16"><rdf:RDF><cc:Work
         rdf:about=""><dc:format>image/svg+xml</dc:format><dc:type
           rdf:resource="http://purl.org/dc/dcmitype/StillImage" /><dc:title></dc:title></cc:Work></rdf:RDF></metadata><defs
     id="defs14"><clipPath
       id="clipPath26"
       clipPathUnits="userSpaceOnUse"><path
         id="path24"
         d="M 0,15 H 45 V 0 H 0 Z" /></clipPath></defs><sodipodi:namedview
     fit-margin-bottom="0.1"
     fit-margin-right="0.1"
     fit-margin-left="0.1"
     fit-margin-top="0.1"
     inkscape:current-layer="g18"
     inkscape:window-maximized="1"
     inkscape:window-y="32"
     inkscape:window-x="-8"
     inkscape:cy="2.460518"
     inkscape:cx="15.833867"
     inkscape:zoom="21.9"
     showgrid="false"
     id="namedview12"
     inkscape:window-height="1017"
     inkscape:window-width="1920"
     inkscape:pageshadow="2"
     inkscape:pageopacity="0"
     guidetolerance="10"
     gridtolerance="10"
     objecttolerance="10"
     borderopacity="1"
     bordercolor="#666666"
     pagecolor="#ffffff" /><g
     transform="matrix(1.3333333,0,0,-1.3333333,-7.0330665,13.540533)"
     inkscape:label="naint_reg"
     inkscape:groupmode="layer"
     id="g18"><g
       id="g20"><g
         clip-path="url(#clipPath26)"
         id="g22"><g
           transform="translate(8.9167,7.5853)"
           id="g28"><path
             id="path30"
             style="fill:#252122;fill-opacity:1;fill-rule:nonzero;stroke:none"
             d="m 0,0 c 0,-0.273 0.223,-0.496 0.499,-0.496 0.275,0 0.498,0.223 0.498,0.496 0,0.274 -0.223,0.497 -0.498,0.497 C 0.223,0.497 0,0.274 0,0" /></g><g
           transform="translate(7.9206,8.5824)"
           id="g32"><path
             id="path34"
             style="fill:#252122;fill-opacity:1;fill-rule:nonzero;stroke:none"
             d="m 0,0 c 0,-0.276 0.223,-0.5 0.498,-0.5 0.275,0 0.498,0.224 0.498,0.5 0,0.276 -0.223,0.501 -0.498,0.501 C 0.223,0.501 0,0.276 0,0" /></g><g
           transform="translate(5.3498,7.5853)"
           id="g36"><path
             id="path38"
             style="fill:#252122;fill-opacity:1;fill-rule:nonzero;stroke:none"
             d="m 0,0 c 0,-0.062 0.05,-0.112 0.112,-0.112 0.062,0 0.113,0.05 0.113,0.112 0,0.062 -0.051,0.112 -0.113,0.112 C 0.05,0.112 0,0.062 0,0" /></g><g
           transform="translate(5.3498,5.5589)"
           id="g40"><path
             id="path42"
             style="fill:#252122;fill-opacity:1;fill-rule:nonzero;stroke:none"
             d="m 0,0 c 0,-0.062 0.05,-0.112 0.112,-0.112 0.062,0 0.113,0.05 0.113,0.112 0,0.062 -0.051,0.112 -0.113,0.112 C 0.05,0.112 0,0.062 0,0" /></g><g
           transform="translate(5.3498,9.5824)"
           id="g44"><path
             id="path46"
             style="fill:#252122;fill-opacity:1;fill-rule:nonzero;stroke:none"
             d="m 0,0 c 0,-0.062 0.05,-0.113 0.112,-0.113 0.062,0 0.113,0.051 0.113,0.113 0,0.062 -0.051,0.112 -0.113,0.112 C 0.05,0.112 0,0.062 0,0" /></g><g
           transform="translate(8.9167,9.5824)"
           id="g48"><path
             id="path50"
             style="fill:#252122;fill-opacity:1;fill-rule:nonzero;stroke:none"
             d="m 0,0 c 0,-0.275 0.223,-0.499 0.499,-0.499 0.275,0 0.498,0.224 0.498,0.499 0,0.275 -0.223,0.498 -0.498,0.498 C 0.223,0.498 0,0.275 0,0" /></g><g
           transform="translate(8.9167,5.5794)"
           id="g52"><path
             id="path54"
             style="fill:#252122;fill-opacity:1;fill-rule:nonzero;stroke:none"
             d="m 0,0 c 0,-0.273 0.223,-0.496 0.499,-0.496 0.275,0 0.498,0.223 0.498,0.496 0,0.274 -0.223,0.496 -0.498,0.496 C 0.223,0.496 0,0.274 0,0" /></g><g
           transform="translate(7.9206,6.5755)"
           id="g56"><path
             id="path58"
             style="fill:#252122;fill-opacity:1;fill-rule:nonzero;stroke:none"
             d="m 0,0 c 0,-0.275 0.223,-0.5 0.498,-0.5 0.275,0 0.498,0.225 0.498,0.5 0,0.276 -0.223,0.5 -0.498,0.5 C 0.223,0.5 0,0.276 0,0" /></g><g
           transform="translate(7.1281,9.5902)"
           id="g60"><path
             id="path62"
             style="fill:#252122;fill-opacity:1;fill-rule:nonzero;stroke:none"
             d="m 0,0 c 0,-0.16 0.13,-0.291 0.291,-0.291 0.16,0 0.29,0.131 0.29,0.291 0,0.16 -0.13,0.291 -0.29,0.291 C 0.13,0.291 0,0.16 0,0" /></g><g
           transform="translate(6.1159,6.5755)"
           id="g64"><path
             id="path66"
             style="fill:#252122;fill-opacity:1;fill-rule:nonzero;stroke:none"
             d="m 0,0 c 0,-0.16 0.13,-0.29 0.291,-0.29 0.16,0 0.291,0.13 0.291,0.29 0,0.161 -0.131,0.291 -0.291,0.291 C 0.13,0.291 0,0.161 0,0" /></g><g
           transform="translate(6.1159,8.5824)"
           id="g68"><path
             id="path70"
             style="fill:#252122;fill-opacity:1;fill-rule:nonzero;stroke:none"
             d="m 0,0 c 0,-0.164 0.13,-0.298 0.291,-0.298 0.16,0 0.291,0.134 0.291,0.298 0,0.165 -0.131,0.299 -0.291,0.299 C 0.13,0.299 0,0.165 0,0" /></g><g
           transform="translate(7.1281,5.5589)"
           id="g72"><path
             id="path74"
             style="fill:#252122;fill-opacity:1;fill-rule:nonzero;stroke:none"
             d="m 0,0 c 0,-0.16 0.13,-0.291 0.291,-0.291 0.16,0 0.29,0.131 0.29,0.291 0,0.16 -0.13,0.291 -0.29,0.291 C 0.13,0.291 0,0.16 0,0" /></g><g
           transform="translate(7.1281,7.6058)"
           id="g76"><path
             id="path78"
             style="fill:#252122;fill-opacity:1;fill-rule:nonzero;stroke:none"
             d="m 0,0 c 0,-0.16 0.13,-0.29 0.291,-0.29 0.16,0 0.29,0.13 0.29,0.29 0,0.16 -0.13,0.291 -0.29,0.291 C 0.13,0.291 0,0.16 0,0" /></g><g
           transform="translate(15.8859,5.3958)"
           id="g80"><path
             id="path82"
             style="fill:#16b1b4;fill-opacity:1;fill-rule:nonzero;stroke:none"
             d="m 0,0 c 0,-0.078 -0.026,-0.145 -0.079,-0.196 -0.052,-0.053 -0.118,-0.079 -0.196,-0.079 -0.017,0 -0.043,0.004 -0.079,0.009 -0.023,0.007 -0.056,0.024 -0.098,0.05 L -4.389,3.721 V 0 c 0,-0.078 -0.028,-0.145 -0.084,-0.196 -0.052,-0.053 -0.116,-0.079 -0.192,-0.079 -0.078,0 -0.144,0.026 -0.196,0.079 -0.053,0.051 -0.078,0.118 -0.078,0.196 v 4.389 c 0,0.04 0.006,0.072 0.019,0.098 0.02,0.039 0.033,0.063 0.039,0.07 0.056,0.065 0.128,0.097 0.216,0.097 0.069,0 0.135,-0.026 0.197,-0.078 l 0.015,-0.01 0.019,-0.019 3.888,-3.888 v 3.72 c 0,0.079 0.026,0.144 0.079,0.197 0.052,0.052 0.116,0.078 0.192,0.078 0.078,0 0.144,-0.026 0.196,-0.078 C -0.026,4.523 0,4.458 0,4.379 Z" /></g><g
           transform="translate(21.3024,9.4906)"
           id="g84"><path
             id="path86"
             style="fill:#16b1b4;fill-opacity:1;fill-rule:nonzero;stroke:none"
             d="M 0,0 H -1.917 C -2.398,0 -2.819,-0.159 -3.18,-0.477 -3.537,-0.791 -3.749,-1.181 -3.814,-1.646 H 0 Z M 0.271,0.546 C 0.349,0.546 0.415,0.52 0.467,0.467 0.52,0.415 0.545,0.35 0.545,0.271 v -4.37 c 0,-0.075 -0.025,-0.14 -0.078,-0.197 -0.052,-0.052 -0.118,-0.078 -0.196,-0.078 -0.076,0 -0.14,0.026 -0.192,0.078 C 0.026,-4.239 0,-4.174 0,-4.099 v 1.908 h -3.838 v -1.917 c 0,-0.079 -0.027,-0.145 -0.079,-0.198 -0.053,-0.051 -0.117,-0.078 -0.192,-0.078 -0.078,0 -0.144,0.027 -0.197,0.078 -0.052,0.053 -0.078,0.119 -0.078,0.198 v 2.191 c 0,0.682 0.241,1.262 0.722,1.74 0.479,0.482 1.06,0.723 1.745,0.723 z" /></g><g
           transform="translate(27.7443,5.1849)"
           id="g88"><path
             id="path90"
             style="fill:#16b1b4;fill-opacity:1;fill-rule:nonzero;stroke:none"
             d="m 0,0 c -0.052,-0.052 -0.118,-0.078 -0.197,-0.078 h -4.369 c -0.076,0 -0.141,0.026 -0.197,0.078 -0.052,0.053 -0.078,0.118 -0.078,0.197 0,0.075 0.026,0.139 0.078,0.192 0.056,0.052 0.121,0.079 0.197,0.079 h 1.897 v 3.838 h -1.907 c -0.078,0 -0.144,0.026 -0.196,0.079 -0.053,0.052 -0.079,0.116 -0.079,0.191 0,0.079 0.026,0.145 0.079,0.196 0.052,0.053 0.118,0.08 0.196,0.08 h 4.369 c 0.076,0 0.142,-0.027 0.197,-0.08 C 0.042,4.721 0.069,4.655 0.069,4.576 0.069,4.501 0.042,4.437 -0.01,4.385 -0.065,4.332 -0.131,4.306 -0.207,4.306 H -2.123 V 0.468 h 1.926 C -0.118,0.468 -0.052,0.441 0,0.389 0.052,0.336 0.079,0.272 0.079,0.197 0.079,0.118 0.052,0.053 0,0" /></g><g
           transform="translate(33.8522,5.4105)"
           id="g92"><path
             id="path94"
             style="fill:#16b1b4;fill-opacity:1;fill-rule:nonzero;stroke:none"
             d="m 0,0 c 0,-0.079 -0.026,-0.145 -0.079,-0.197 -0.052,-0.052 -0.117,-0.078 -0.196,-0.078 -0.017,0 -0.043,0.003 -0.079,0.009 -0.023,0.006 -0.056,0.023 -0.098,0.049 L -4.389,3.72 V 0 c 0,-0.079 -0.028,-0.145 -0.084,-0.197 -0.052,-0.052 -0.116,-0.078 -0.191,-0.078 -0.079,0 -0.145,0.026 -0.197,0.078 -0.052,0.052 -0.078,0.118 -0.078,0.197 v 4.389 c 0,0.039 0.006,0.072 0.019,0.098 0.02,0.039 0.033,0.062 0.04,0.069 0.055,0.065 0.128,0.098 0.216,0.098 0.069,0 0.134,-0.026 0.196,-0.079 l 0.015,-0.01 0.02,-0.019 3.888,-3.888 v 3.721 c 0,0.078 0.026,0.143 0.078,0.196 0.052,0.053 0.116,0.079 0.192,0.079 0.079,0 0.144,-0.026 0.196,-0.079 C -0.026,4.522 0,4.457 0,4.379 Z" /></g><g
           transform="translate(39.7878,9.5697)"
           id="g96"><path
             id="path98"
             style="fill:#16b1b4;fill-opacity:1;fill-rule:nonzero;stroke:none"
             d="m 0,0 c -0.052,-0.056 -0.118,-0.084 -0.196,-0.084 h -1.922 v -4.103 c 0,-0.08 -0.027,-0.145 -0.079,-0.198 -0.052,-0.052 -0.118,-0.078 -0.197,-0.078 -0.075,0 -0.139,0.026 -0.191,0.078 -0.053,0.053 -0.079,0.118 -0.079,0.198 v 4.103 h -1.912 c -0.078,0 -0.144,0.028 -0.196,0.084 -0.053,0.052 -0.079,0.116 -0.079,0.191 0,0.08 0.026,0.145 0.079,0.197 0.052,0.052 0.118,0.079 0.196,0.079 h 4.38 C -0.118,0.467 -0.052,0.44 0,0.388 0.053,0.336 0.079,0.271 0.079,0.191 0.079,0.116 0.053,0.052 0,0" /></g></g></g></g></svg>
